# xmcd CD database file
#
# Track frame offsets:
#	150
#	20635
#	41112
#	62857
#
# Disc length: 1126 seconds
#
# Revision: 0
# Processed by: cddbd v1.5.1PL0 Copyright (c) Steve Scherf et al.
# Submitted via: CDex 1.51
#
DISCID=34046404
DTITLE=川中美幸 - 貴船の宿
DYEAR=2002
DGENRE=Pop
TTITLE0=川中美幸 - 貴船の宿
TTITLE1=川中美幸 - 貴船の宿（オリジナル・カラオケ）
TTITLE2=川中美幸 - 祭りうた
TTITLE3=川中美幸 - 祭りうた（オリジナル・カラオケ）
EXTD=YEAR: 2002
EXTT0=
EXTT1=
EXTT2=
EXTT3=
PLAYORDER=
